HIERARCHY
ROOT Hips
{
	OFFSET 0.00000 0.00000 0.00000
	CHANNELS 6 Xposition Yposition Zposition Yrotation Zrotation Xrotation 
	JOINT Lumbar
	{
		OFFSET 0 0 0
		CHANNELS 3 Zrotation Xrotation Yrotation
		JOINT Neck
		{
			OFFSET 0.00 0.2701 0.00
			CHANNELS 3 Zrotation Xrotation Yrotation
			End Site
			{
				OFFSET 0.00 0.1379 0.00
			}
		}
		JOINT RightShoulder
		{
			OFFSET 0.0119 0.2289 0.1181
			CHANNELS 3 Zrotation Xrotation Yrotation
			JOINT RightElbow
			{
				OFFSET 0.00 -0.1475 0.00
				CHANNELS 2 Zrotation Yrotation
				JOINT RightWrist
				{
					OFFSET 0.00 -0.1605 0.00
					CHANNELS 2 Zrotation Xrotation
					End Site
					{
						OFFSET 0.0040 -0.1068 0.0006
					}
				}
			}
		}
		JOINT LeftShoulder
		{
			OFFSET 0.0119 0.2289 -0.1181
			CHANNELS 3 Zrotation Xrotation Yrotation
			JOINT LeftElbow
			{
				OFFSET 0.00 -0.1475 0.00
				CHANNELS 2 Zrotation Yrotation
				JOINT LeftWrist
				{
					OFFSET 0.00 -0.1605 0.00
					CHANNELS 2 Zrotation Xrotation
					End Site
					{
						OFFSET 0.0040 -0.1068 -0.0006
					}
				}
			}
		}
	}
	JOINT RightHip
	{
		OFFSET 0.0316 -0.0424 0.0458
		CHANNELS 3 Zrotation Xrotation Yrotation
		JOINT RightKnee
		{
			OFFSET 0.00 -0.2438 0.00
			CHANNELS 1 Zrotation
			JOINT RightAnkle
			{
				OFFSET 0.00 -0.2449 0.00
				CHANNELS 3 Zrotation Xrotation Yrotation
				End Site
				{
					OFFSET 0.1237 -0.0542 0.0051
				}
			}
		}
	}
	JOINT LeftHip
	{
		OFFSET 0.0316 -0.0424 -0.0458
		CHANNELS 3 Zrotation Xrotation Yrotation
		JOINT LeftKnee
		{
			OFFSET 0.00 -0.2438 0.00
			CHANNELS 1 Zrotation
			JOINT LeftAnkle
			{
				OFFSET 0.00 -0.2449 0.00
				CHANNELS 3 Zrotation Xrotation Yrotation
				End Site
				{
					OFFSET 0.1237 -0.0542 -0.0051
				}
			}
		}
	}
}
MOTION
Frames: 32
Frame Time: 0.02
0 0.57926 -0 183.49947 0 -4.82925 5.79107 3.28045 -4.5715 -24.2037 4.03799 2.42672 18.41643 -13.71842 -1.48047 8.90643 81.78196 -0.08574 0.15199 15.29646 4.40848 39.30214 5.7869 -77.86517 -4.09838 0.44871 -4.37112 6.42964 1.22131 -3.47516 0.22401 -2.72875 -4.7021 -4.85332 3.32743 -3.96069 -3.16433 4.90073 4.9556 12.72341
-0.0001 0.57927 5e-05 183.55749 0 -4.83111 5.79861 3.29186 -4.51745 -24.18571 3.98332 2.46819 18.38661 -13.64723 -1.41435 8.90474 81.82115 -0.08881 0.16513 15.37717 4.35641 38.24092 5.78683 -77.84885 -4.13771 0.4117 -4.42043 6.46698 2.45066 -3.41659 0.10693 -2.93152 -5.98465 -4.84272 3.36549 -2.7264 -3.18812 5.0089 4.93251 11.43451
-0.00019 0.57927 9e-05 183.61534 0 -4.8329 5.80634 3.30314 -4.46381 -24.16816 3.92901 2.50927 18.35774 -13.57631 -1.34738 8.90322 81.85999 -0.09183 0.17803 15.45962 4.30485 37.17379 5.78708 -77.83212 -4.1761 0.37503 -4.46944 6.50381 3.66421 -3.3585 -0.00863 -3.13199 -7.25123 -4.83233 3.4031 -1.50574 -3.21156 5.11585 4.90952 10.15947
-0.00029 0.57927 0.00014 183.67306 0 -4.83438 5.81486 3.31397 -4.411 -24.15223 3.8756 2.54948 18.33185 -13.50599 -1.27775 8.90212 81.89776 -0.09477 0.19028 15.54821 4.25433 36.0844 5.7875 -77.81128 -4.21301 0.34083 -4.51776 6.53879 4.82174 -3.30186 -0.11879 -3.32493 -8.46164 -4.82295 3.43891 -0.33867 -3.23341 5.21788 4.88767 8.93845
-0.00038 0.57928 0.00019 183.73145 0 -4.83749 5.81916 3.32714 -4.35348 -24.12784 3.81742 2.59466 18.28953 -13.43273 -1.22389 8.89849 81.94115 -0.09824 0.20618 15.60236 4.19771 35.12694 5.78569 -77.80946 -4.26003 0.29534 -4.56979 6.58332 6.27028 -3.23763 -0.25697 -3.55737 -9.96383 -4.80852 3.48383 1.09899 -3.26318 5.34466 4.86095 7.44462
-0.00049 0.57928 0.00023 183.78836 0 -4.83716 5.8324 3.33538 -4.30616 -24.12125 3.76938 2.62901 18.28244 -13.36559 -1.13559 8.90043 81.97268 -0.1005 0.21423 15.73057 4.15442 33.88191 5.78949 -77.76931 -4.28406 0.27256 -4.61391 6.60777 7.10578 -3.18949 -0.33613 -3.70629 -10.85131 -4.80459 3.50972 1.97194 -3.2765 5.41987 4.84377 6.52023
-0.00065 0.57928 0.00026 183.84278 0 -4.82677 5.87128 3.32954 -4.28522 -24.16583 3.74924 2.63577 18.37177 -13.31565 -0.95542 8.91648 81.97062 -0.10003 0.20089 16.06335 4.14514 31.86131 5.8017 -77.6017 -4.2565 0.32481 -4.63665 6.57416 6.17508 -3.18651 -0.24527 -3.61822 -9.96965 -4.83217 3.47933 1.17287 -3.2408 5.34145 4.86028 7.27989
-0.00084 0.57927 0.00028 183.8956 0 -4.81298 5.91887 3.31876 -4.27495 -24.22767 3.73938 2.63118 18.49655 -13.2719 -0.73938 8.93844 81.95679 -0.0982 0.17953 16.47088 4.1498 29.54704 5.82079 -77.39884 -4.20383 0.39809 -4.65127 6.52072 4.63746 -3.19974 -0.096 -3.44693 -8.47928 -4.86975 3.43033 -0.1784 -3.18936 5.21278 4.88526 8.59651
-0.00101 0.57926 0.00031 183.94801 0 -4.80111 5.96213 3.31057 -4.26081 -24.28087 3.7248 2.63031 18.60626 -13.22489 -0.53779 8.9585 81.94885 -0.09666 0.16164 16.84514 4.14996 27.34943 5.84144 -77.22638 -4.15442 0.45342 -4.66946 6.47804 3.42452 -3.20494 0.02205 -3.31772 -7.3132 -4.90142 3.3923 -1.20249 -3.14712 5.11445 4.9014 9.58461
-0.0012 0.57926 0.00034 184.00465 0 -4.78773 6.00771 3.30108 -4.24219 -24.33904 3.71023 2.63555 18.7131 -13.17928 -0.34528 8.97508 81.93845 -0.09663 0.14454 17.21805 4.14251 25.21343 5.84264 -76.99463 -4.13805 0.54292 -4.68853 6.42803 2.00728 -3.21255 0.1597 -3.17048 -5.94734 -4.93962 3.34388 -2.54055 -3.09525 4.98508 4.93794 10.88387
-0.00136 0.57925 0.00035 184.05278 0 -4.77658 6.04956 3.29296 -4.23586 -24.38891 3.69835 2.62531 18.83243 -13.13285 -0.12378 9.00049 81.9306 -0.09299 0.12384 17.60946 4.15407 22.89138 5.88556 -76.87628 -4.04859 0.56783 -4.70339 6.38851 0.86905 -3.21949 0.27057 -3.04107 -4.85134 -4.96564 3.3124 -3.3655 -3.06093 4.90763 4.93482 11.67619
-0.0014 0.57923 0.00032 184.07204 0 -4.77335 6.08634 3.29113 -4.25725 -24.42795 3.689 2.57565 18.99266 -13.07722 0.15626 9.04756 81.9308 -0.08097 0.09558 18.05046 4.21625 20.0228 6.04581 -77.09452 -3.74938 0.39578 -4.71188 6.38348 0.67007 -3.21675 0.29177 -2.98094 -4.66388 -4.96318 3.33448 -2.55539 -3.06899 4.99243 4.81314 10.85602
-0.0014 0.57921 0.00028 184.08387 0 -4.77232 6.11706 3.29067 -4.29119 -24.45407 3.68234 2.51078 19.16062 -13.02159 0.46696 9.10364 81.93428 -0.06517 0.06384 18.50358 4.29697 16.99634 6.24717 -77.42548 -3.38032 0.1607 -4.71545 6.38956 0.76917 -3.21382 0.28421 -2.9417 -4.76647 -4.94633 3.3738 -1.22528 -3.09746 5.12991 4.65261 9.52059
-0.00142 0.57919 0.00024 184.10285 0 -4.76967 6.1465 3.28867 -4.32191 -24.47662 3.6762 2.45237 19.31619 -12.96952 0.77159 9.15635 81.93754 -0.05018 0.0335 18.94116 4.36795 14.11107 6.42709 -77.69489 -3.0522 -0.03694 -4.71959 6.39007 0.71821 -3.21314 0.2909 -2.89307 -4.72655 -4.93156 3.40377 -0.18785 -3.12267 5.23903 4.51434 8.47131
-0.00148 0.57916 0.00021 184.10578 0 -4.7695 6.19578 3.29015 -4.34305 -24.54347 3.6636 2.39505 19.51378 -12.90258 1.04294 9.20589 81.93519 -0.03875 0.00389 19.42697 4.4442 10.92348 6.61853 -78.00598 -2.68352 -0.27175 -4.73193 6.39202 0.70696 -3.20262 0.295 -2.84104 -4.70979 -4.93746 3.43954 1.06791 -3.12048 5.36534 4.35667 7.22252
-0.00142 0.57916 0.00016 184.1405 0 -4.76473 6.19901 3.28502 -4.38631 -24.50991 3.66428 2.33255 19.62108 -12.86661 1.39207 9.26449 81.94526 -0.01934 -0.02825 19.81013 4.51468 8.33057 6.79607 -78.25833 -2.38416 -0.44343 -4.72433 6.39395 0.6926 -3.21393 0.29647 -2.8022 -4.72255 -4.89485 3.4675 2.00005 -3.18221 5.46865 4.23037 6.25899
-0.00111 0.57921 7e-05 184.26415 0 -4.74681 6.10283 3.25917 -4.49275 -24.24232 3.70672 2.25425 19.51124 -12.91534 1.9341 9.34253 81.99039 0.02396 -0.0641 19.94005 4.55622 7.43199 6.9218 -78.31397 -2.2839 -0.43374 -4.67793 6.39277 0.59204 -3.27225 0.30112 -2.79462 -4.74114 -4.73777 3.47029 1.90946 -3.4004 5.49886 4.19753 6.21256
-0.00067 0.57928 -5e-05 184.42038 0 -4.72425 5.95495 3.22709 -4.61961 -23.86565 3.76134 2.17189 19.30292 -12.9953 2.55575 9.42998 82.04765 0.07462 -0.10281 19.95868 4.59296 7.13637 7.0328 -78.30806 -2.25768 -0.35698 -4.60865 6.39145 0.48204 -3.35509 0.30315 -2.80009 -4.78363 -4.52913 3.46465 1.47808 -3.68514 5.50368 4.19802 6.46763
-0.00024 0.57935 -0.00016 184.56186 0 -4.70372 5.81422 3.19925 -4.73419 -23.51367 3.80651 2.09541 19.11818 -13.06151 3.15028 9.51529 82.09839 0.12011 -0.14177 20.00741 4.63714 6.55716 7.15261 -78.33509 -2.20389 -0.30546 -4.54026 6.39037 0.38244 -3.43515 0.3039 -2.8 -4.82098 -4.33382 3.46249 1.20708 -3.94932 5.51834 4.18498 6.57961
-3e-05 0.57939 -0.00024 184.70201 0 -4.68335 5.74478 3.16536 -4.86352 -23.26994 3.86818 2.00308 19.02643 -13.12607 3.70802 9.59187 82.15351 0.1735 -0.17425 20.14719 4.65913 6.01231 7.26458 -78.34516 -2.12209 -0.27792 -4.51264 6.3885 0.26686 -3.47929 0.31426 -2.79879 -4.84278 -4.18146 3.46218 0.9318 -4.17317 5.54232 4.16386 6.69937
0.00068 0.5795 -0.0004 184.85383 0 -4.66184 5.51152 3.14277 -4.96475 -22.77043 3.89849 1.94083 18.7134 -13.20119 4.36042 9.68881 82.20231 0.21203 -0.22095 20.06555 4.7268 5.54161 7.38928 -78.37437 -2.117 -0.18411 -4.3937 6.38865 0.17874 -3.60484 0.30417 -2.80301 -4.90037 -3.92657 3.45605 0.57632 -4.49677 5.53976 4.16787 6.88144
0.00269 0.57977 -0.00073 185.02078 0 -4.63549 4.86464 3.15105 -5.00068 -21.63006 3.83752 1.98133 17.84782 -13.3001 5.25808 9.83873 82.23059 0.20861 -0.30552 19.44301 4.91461 5.12637 7.54845 -78.4716 -2.30711 0.08032 -4.03705 6.38964 0.16604 -3.94241 0.23993 -2.81689 -5.03809 -3.41023 3.43373 0.09374 -5.07641 5.47307 4.23397 7.16085
0.00521 0.58009 -0.00114 185.20015 0 -4.60858 4.04959 3.17121 -5.00428 -20.22876 3.74454 2.0489 16.75628 -13.40787 6.24711 10.00881 82.25187 0.18977 -0.4044 18.59292 5.14994 4.76646 7.72131 -78.58952 -2.57196 0.4086 -3.58772 6.39339 0.18013 -4.36217 0.15511 -2.83604 -5.21176 -2.79124 3.40615 -0.46215 -5.75377 5.37947 4.32402 7.49487
0.00753 0.58038 -0.00153 185.37978 0 -4.58392 3.29475 3.18719 -5.01129 -18.92171 3.66779 2.09178 15.74587 -13.51045 7.19243 10.17034 82.27667 0.17743 -0.49717 17.81906 5.36794 4.38278 7.89079 -78.69751 -2.80195 0.70548 -3.17494 6.39914 0.18261 -4.74893 0.07861 -2.85413 -5.37634 -2.21286 3.38236 -0.99461 -6.38941 5.29633 4.403 7.80759
0.00969 0.5807 -0.00185 185.53541 0 -4.55107 2.60755 3.19798 -5.06682 -17.71402 3.5858 2.18646 14.82392 -13.62012 8.15128 10.33009 82.30133 0.16759 -0.58844 17.15774 5.56721 4.01283 8.04873 -78.80615 -3.03819 1.01518 -2.78461 6.39169 0.18358 -5.11882 0.006 -2.86718 -5.51242 -1.65653 3.3525 -1.49798 -7.01951 5.2209 4.48479 8.11736
0.01232 0.58098 -0.00233 185.7438 0 -4.5347 1.73894 3.22227 -5.01314 -16.23829 3.50514 2.18015 13.66424 -13.71534 9.10074 10.4976 82.32336 0.14863 -0.68614 16.20737 5.81755 3.62133 8.23297 -78.91852 -3.27826 1.31191 -2.32616 6.41175 0.19285 -5.54225 -0.07912 -2.89162 -5.71472 -1.03262 3.33399 -2.07364 -7.67911 5.12196 4.56486 8.44025
0.0161 0.58115 -0.00324 186.09313 0 -4.56848 0.42167 3.28299 -4.66764 -14.09299 3.45168 1.88492 11.91508 -13.78019 10.01749 10.68671 82.3497 0.1098 -0.79838 14.53389 6.19104 3.13889 8.49626 -79.0413 -3.5096 1.56148 -1.69952 6.51245 0.2289 -6.09961 -0.19756 -2.94797 -6.10208 -0.22982 3.34937 -2.84182 -8.43338 4.97666 4.6439 8.80324
0.02034 0.58127 -0.00431 186.49561 0 -4.61808 -1.07399 3.35673 -4.21319 -11.68764 3.39769 1.48794 9.93416 -13.82779 10.9183 10.8818 82.37209 0.0621 -0.9164 12.57558 6.61529 2.63293 8.78362 -79.16637 -3.74184 1.79447 -1.0084 6.63976 0.27025 -6.70638 -0.32716 -3.01522 -6.55271 0.63398 3.37617 -3.67671 -9.20671 4.8066 4.71851 9.17273
0.02437 0.58141 -0.00531 186.87431 0 -4.65744 -2.49525 3.4229 -3.80694 -9.39569 3.33362 1.13961 8.0504 -13.8755 11.81582 11.07093 82.38929 0.01724 -1.03176 10.73387 7.0207 2.14679 9.05385 -79.2874 -3.97423 2.03219 -0.34845 6.75135 0.30264 -7.28675 -0.44909 -3.07626 -6.96695 1.45816 3.39691 -4.47204 -9.94659 4.64002 4.78863 9.52661
0.02841 0.58157 -0.00628 187.25055 0 -4.70946 -3.895 3.49559 -3.40391 -7.10895 3.31201 0.7814 6.18748 -13.95637 12.76114 11.27499 82.43424 -0.02362 -1.14835 8.93309 7.41073 1.62544 9.35142 -79.42211 -4.20775 2.28484 0.32359 6.87828 0.36449 -7.88802 -0.58264 -3.14277 -7.41446 2.33606 3.42105 -5.30844 -10.79446 4.50489 4.88676 9.93654
0.03254 0.58168 -0.00736 187.64604 0 -4.73915 -5.37876 3.55875 -2.97022 -4.76029 3.20225 0.42008 4.23621 -13.9637 13.60179 11.44843 82.42243 -0.07407 -1.26285 6.98901 7.84323 1.16977 9.59667 -79.52817 -4.43711 2.5006 0.98336 6.97961 0.36481 -8.45472 -0.69445 -3.20044 -7.80752 3.11535 3.44099 -6.07503 -11.42078 4.29922 4.92556 10.22985
0.03681 0.58166 -0.00869 188.06722 0 -4.70097 -7.05814 3.58275 -2.4658 -2.24466 2.84967 0.06827 2.03894 -13.77444 14.15775 11.54208 82.23847 -0.15436 -1.37632 4.66491 8.38857 0.9093 9.70012 -79.55826 -4.66301 2.62668 1.60351 7.00316 0.20318 -8.92852 -0.74262 -3.23068 -8.03202 3.60616 3.44568 -6.62444 -11.42973 3.90118 4.79835 10.20503
